<svg id="Capa_1" data-name="Capa 1" xmlns="http://www.w3.org/2000/svg" viewBox="0 0 159.67 55"><title>Apple_stores</title><path d="M340,52.17A2.83,2.83,0,0,1,337.17,55h-154a2.84,2.84,0,0,1-2.84-2.83V2.83A2.84,2.84,0,0,1,183.17,0h154A2.83,2.83,0,0,1,340,2.83Z" transform="translate(-180.33)" fill="#393939"/><path d="M209.23,10.22H195.78a4,4,0,0,0-3.45,3.36V41.8a3.47,3.47,0,0,0,3.12,3.12h14.16a3.47,3.47,0,0,0,3.07-3.07V13.67A3.53,3.53,0,0,0,209.23,10.22Zm-6.74,33.86a2,2,0,1,1,2-2A2,2,0,0,1,202.49,44.08Zm7.76-5H194.72V15.86h15.53Z" transform="translate(-180.33)" fill="#fff"/><path d="M225.61,37.41l-1.51,5h-3.31l5.62-17.53h4.08l5.7,17.53h-3.44l-1.58-5Zm5-2.42-1.37-4.31c-.34-1.07-.63-2.27-.89-3.28h-.05c-.26,1-.52,2.24-.83,3.28L226.12,35Z" transform="translate(-180.33)" fill="#fff"/><path d="M238,33.92c0-1.66,0-3-.1-4.21h2.8l.16,1.95h0a4.94,4.94,0,0,1,4.35-2.23c2.91,0,5.33,2.49,5.33,6.45,0,4.57-2.89,6.78-5.78,6.78A4.15,4.15,0,0,1,241.23,41h0v6.55H238V33.92Zm3.2,3.15a3.6,3.6,0,0,0,.1.88,2.91,2.91,0,0,0,2.81,2.24c2,0,3.23-1.69,3.23-4.19,0-2.23-1.1-4.05-3.15-4.05a3,3,0,0,0-2.86,2.36,2.85,2.85,0,0,0-.13.81v2Z" transform="translate(-180.33)" fill="#fff"/><path d="M252.67,33.92c0-1.66,0-3-.1-4.21h2.81l.15,1.95h.05a4.94,4.94,0,0,1,4.35-2.23c2.91,0,5.33,2.49,5.33,6.45,0,4.57-2.89,6.78-5.78,6.78A4.15,4.15,0,0,1,255.92,41h0v6.55h-3.2V33.92Zm3.2,3.15a3.6,3.6,0,0,0,.1.88,2.91,2.91,0,0,0,2.81,2.24c2,0,3.23-1.69,3.23-4.19,0-2.23-1.1-4.05-3.15-4.05A3,3,0,0,0,256,34.31a2.85,2.85,0,0,0-.13.81v2Z" transform="translate(-180.33)" fill="#fff"/><path d="M272.27,38.89A8.87,8.87,0,0,0,276.51,40c2.06,0,3.2-1,3.2-2.39s-.88-2.11-3.12-2.91c-2.89-1-4.73-2.58-4.73-5.1,0-2.86,2.39-5.05,6.19-5.05a9.2,9.2,0,0,1,4.21.89L281.48,28a7.39,7.39,0,0,0-3.48-.83c-2,0-2.92,1.09-2.92,2.11,0,1.35,1,2,3.36,2.88,3,1.15,4.52,2.68,4.52,5.2,0,2.81-2.13,5.25-6.65,5.25a10.49,10.49,0,0,1-4.74-1.09Z" transform="translate(-180.33)" fill="#fff"/><path d="M288.86,26.1v3.61h3V32.1h-3v5.6c0,1.53.42,2.34,1.64,2.34a4.63,4.63,0,0,0,1.25-.16l.05,2.44a6.78,6.78,0,0,1-2.31.32,3.72,3.72,0,0,1-2.76-1,5,5,0,0,1-1-3.54v-6h-1.82v-2.4h1.82V26.85Z" transform="translate(-180.33)" fill="#fff"/><path d="M305.84,35.93c0,4.65-3.27,6.73-6.5,6.73A6.12,6.12,0,0,1,293,36.13c0-4.16,2.73-6.7,6.55-6.7S305.84,32.08,305.84,35.93Zm-9.54.13c0,2.44,1.2,4.29,3.15,4.29s3.09-1.8,3.09-4.34c0-2-.89-4.24-3.07-4.24S296.3,34,296.3,36.06Z" transform="translate(-180.33)" fill="#fff"/><path d="M308,33.79c0-1.71,0-2.93-.11-4.08h2.78l.11,2.42h.1a3.79,3.79,0,0,1,3.46-2.7,3.48,3.48,0,0,1,.75.07v3a4.55,4.55,0,0,0-.93-.1,2.8,2.8,0,0,0-2.86,2.41,5.76,5.76,0,0,0-.11,1v6.55H308Z" transform="translate(-180.33)" fill="#fff"/><path d="M318.94,36.94c.08,2.29,1.88,3.28,3.9,3.28a9.38,9.38,0,0,0,3.51-.58l.47,2.21a11.75,11.75,0,0,1-4.42.78c-4.11,0-6.52-2.52-6.52-6.39,0-3.51,2.13-6.81,6.18-6.81s5.46,3.38,5.46,6.16a8.17,8.17,0,0,1-.1,1.35Zm5.57-2.23c0-1.17-.5-3.1-2.63-3.1-2,0-2.81,1.79-2.94,3.1Z" transform="translate(-180.33)" fill="#fff"/><path d="M221.56,17a3.68,3.68,0,0,0,1.87.53c1.07,0,1.69-.57,1.69-1.38s-.43-1.19-1.52-1.61c-1.32-.47-2.13-1.15-2.13-2.29A2.32,2.32,0,0,1,224.08,10a3.73,3.73,0,0,1,1.79.39l-.29.85a3.25,3.25,0,0,0-1.54-.38c-1.1,0-1.52.66-1.52,1.21,0,.76.49,1.13,1.61,1.56,1.37.53,2.06,1.19,2.06,2.37s-.92,2.33-2.83,2.33a4.25,4.25,0,0,1-2.06-.51Z" transform="translate(-180.33)" fill="#fff"/><path d="M231.8,18a4,4,0,0,1-1.67.33,2.76,2.76,0,0,1-2.89-3,2.94,2.94,0,0,1,3.12-3.08,3.44,3.44,0,0,1,1.46.3l-.24.81a2.5,2.5,0,0,0-1.22-.27,2,2,0,0,0-2.05,2.19,2,2,0,0,0,2,2.17,2.9,2.9,0,0,0,1.3-.29Z" transform="translate(-180.33)" fill="#fff"/><path d="M236.25,18.22l-.08-.73h0a2.16,2.16,0,0,1-1.78.86,1.65,1.65,0,0,1-1.77-1.66c0-1.41,1.25-2.17,3.49-2.16v-.12a1.2,1.2,0,0,0-1.32-1.35,2.84,2.84,0,0,0-1.51.44l-.24-.7a3.61,3.61,0,0,1,1.91-.52c1.77,0,2.2,1.22,2.2,2.38v2.17a8.32,8.32,0,0,0,.1,1.39Zm-.16-3c-1.15,0-2.46.18-2.46,1.31a.93.93,0,0,0,1,1,1.43,1.43,0,0,0,1.4-1,1,1,0,0,0,.06-.33Z" transform="translate(-180.33)" fill="#fff"/><path d="M238.82,14.23c0-.69,0-1.27,0-1.81h.92l0,1.14h.05a1.75,1.75,0,0,1,1.6-1.28,1.28,1.28,0,0,1,.3,0v1a1.23,1.23,0,0,0-.36,0,1.47,1.47,0,0,0-1.41,1.36,3.37,3.37,0,0,0,0,.49v3.09h-1Z" transform="translate(-180.33)" fill="#fff"/><path d="M244,10.79a.63.63,0,0,1-.68.64.62.62,0,0,1-.63-.64.64.64,0,0,1,.66-.66A.63.63,0,0,1,244,10.79Zm-1.18,7.43v-5.8h1.06v5.8Z" transform="translate(-180.33)" fill="#fff"/><path d="M249.74,18a4,4,0,0,1-1.67.33,2.76,2.76,0,0,1-2.89-3,2.94,2.94,0,0,1,3.12-3.08,3.44,3.44,0,0,1,1.46.3l-.24.81a2.5,2.5,0,0,0-1.22-.27,2,2,0,0,0-2.05,2.19,2,2,0,0,0,2,2.17,2.9,2.9,0,0,0,1.3-.29Z" transform="translate(-180.33)" fill="#fff"/><path d="M254.19,18.22l-.09-.73h0a2.16,2.16,0,0,1-1.78.86,1.65,1.65,0,0,1-1.77-1.66c0-1.41,1.25-2.17,3.49-2.16v-.12a1.2,1.2,0,0,0-1.32-1.35,2.84,2.84,0,0,0-1.51.44l-.24-.7a3.6,3.6,0,0,1,1.9-.52c1.78,0,2.21,1.22,2.21,2.38v2.17a8.32,8.32,0,0,0,.1,1.39Zm-.16-3c-1.15,0-2.46.18-2.46,1.31a.93.93,0,0,0,1,1,1.44,1.44,0,0,0,1.4-1,1,1,0,0,0,.06-.33Z" transform="translate(-180.33)" fill="#fff"/><path d="M259.16,17.14a2.69,2.69,0,0,0,1.39.42c.77,0,1.13-.38,1.13-.86s-.3-.78-1.08-1.07c-1.05-.37-1.54-1-1.54-1.64a1.8,1.8,0,0,1,2-1.71,2.9,2.9,0,0,1,1.42.36l-.26.77a2.32,2.32,0,0,0-1.19-.33c-.62,0-1,.36-1,.79s.35.69,1.1,1c1,.38,1.53.89,1.53,1.75,0,1-.79,1.74-2.17,1.74a3.34,3.34,0,0,1-1.64-.39Z" transform="translate(-180.33)" fill="#fff"/><path d="M268.91,16.64c0,.6,0,1.13,0,1.58H268l-.06-.95h0A2.19,2.19,0,0,1,266,18.35c-.91,0-2-.5-2-2.54V12.42h1.05v3.21c0,1.1.34,1.85,1.3,1.85a1.52,1.52,0,0,0,1.39-1,1.57,1.57,0,0,0,.1-.54V12.42h1.05Z" transform="translate(-180.33)" fill="#fff"/></svg>