<svg id="Capa_1" data-name="Capa 1" xmlns="http://www.w3.org/2000/svg" xmlns:xlink="http://www.w3.org/1999/xlink" viewBox="0 0 159.67 55"><defs><clipPath id="clip-path"><path d="M34.4,21.82,27.61,17.9,14.5,10.33c-.72-.42-1.45-.16-1.45.72V41.87c0,.66.52,1,1.15.58l13.41-7.74,6.79-3.92L40.93,27c.77-.45.69-1.05,0-1.4S34.4,21.82,34.4,21.82Z" fill="none"/></clipPath><linearGradient id="Sfumatura_senza_nome" x1="21.47" y1="46.38" x2="21.47" y2="13.01" gradientTransform="matrix(1, 0, 0, -1, 0, 56)" gradientUnits="userSpaceOnUse"><stop offset="0" stop-color="#0d76ab"/><stop offset="0.3" stop-color="#3e8eaf"/><stop offset="0.77" stop-color="#64b1af"/><stop offset="1" stop-color="#71bdac"/></linearGradient><linearGradient id="Sfumatura_senza_nome_2" x1="13.05" y1="38.1" x2="34.4" y2="38.1" gradientTransform="matrix(1, 0, 0, -1, 0, 56)" gradientUnits="userSpaceOnUse"><stop offset="0" stop-color="#44b1a0"/><stop offset="1" stop-color="#d6e291"/></linearGradient><linearGradient id="Sfumatura_senza_nome_3" x1="23.73" y1="29.69" x2="23.73" y2="12.88" gradientTransform="matrix(1, 0, 0, -1, 0, 56)" gradientUnits="userSpaceOnUse"><stop offset="0" stop-color="#e23834"/><stop offset="0.16" stop-color="#d23949"/><stop offset="0.57" stop-color="#a23a72"/><stop offset="0.86" stop-color="#853b89"/><stop offset="1" stop-color="#7a3b8f"/></linearGradient><linearGradient id="Sfumatura_senza_nome_4" x1="36.02" y1="34.18" x2="36.02" y2="25.21" gradientTransform="matrix(1, 0, 0, -1, 0, 56)" gradientUnits="userSpaceOnUse"><stop offset="0" stop-color="#ea7d6f"/><stop offset="0.15" stop-color="#ec8970"/><stop offset="0.72" stop-color="#f4b16f"/><stop offset="1" stop-color="#f7c06d"/></linearGradient></defs><title>Google_stores</title><path d="M159.67,52.17A2.84,2.84,0,0,1,156.83,55H2.83A2.83,2.83,0,0,1,0,52.17V2.83A2.83,2.83,0,0,1,2.83,0h154a2.84,2.84,0,0,1,2.84,2.83V52.17Z" fill="#393939"/><path d="M117.84,40.77a4.1,4.1,0,0,1-1.7-.34,3.21,3.21,0,0,1-1.29-1.06h-.1a12.65,12.65,0,0,1,.1,1.58v3.92h-1.44V31.08h1.17l.2,1.3h.07a3.43,3.43,0,0,1,1.29-1.13,4,4,0,0,1,1.7-.34,3.53,3.53,0,0,1,2.92,1.29,5.72,5.72,0,0,1,1,3.63,5.64,5.64,0,0,1-1.05,3.64A3.5,3.5,0,0,1,117.84,40.77Zm-.21-8.64a2.55,2.55,0,0,0-2.11.81,4.16,4.16,0,0,0-.67,2.57v.32a4.81,4.81,0,0,0,.67,2.87,2.56,2.56,0,0,0,2.14.86,2.23,2.23,0,0,0,1.94-1,4.76,4.76,0,0,0,.7-2.75,4.58,4.58,0,0,0-.7-2.73A2.31,2.31,0,0,0,117.63,32.13Z" fill="#fff"/><path d="M125.12,40.6h-1.44V27.09h1.44Z" fill="#fff"/><path d="M133.41,40.6l-.29-1.36h-.07a3.85,3.85,0,0,1-1.42,1.21,4.33,4.33,0,0,1-1.76.32,3.15,3.15,0,0,1-2.22-.73,2.65,2.65,0,0,1-.8-2.07c0-1.93,1.53-2.93,4.6-3l1.62,0V34.3a2.41,2.41,0,0,0-.48-1.65,2,2,0,0,0-1.54-.53,6.31,6.31,0,0,0-2.69.72l-.45-1.1a7.26,7.26,0,0,1,1.54-.6,6.9,6.9,0,0,1,1.68-.21,3.66,3.66,0,0,1,2.53.75,3.17,3.17,0,0,1,.82,2.42v6.5Zm-3.26-1a2.94,2.94,0,0,0,2.12-.74,2.73,2.73,0,0,0,.77-2.06v-.86L131.6,36a5.28,5.28,0,0,0-2.48.53,1.61,1.61,0,0,0-.76,1.47,1.49,1.49,0,0,0,.47,1.19A2,2,0,0,0,130.15,39.58Z" fill="#fff"/><path d="M135.31,31.08h1.55l2.08,5.43a19.77,19.77,0,0,1,.85,2.68h.07c.08-.3.23-.8.47-1.52s1-2.91,2.36-6.59h1.55l-4.09,10.83a5.42,5.42,0,0,1-1.42,2.28,3,3,0,0,1-2,.68,5.79,5.79,0,0,1-1.31-.15V43.57a5.81,5.81,0,0,0,1.07.1A2.21,2.21,0,0,0,138.62,42l.53-1.35Z" fill="#fff"/><path d="M91.14,32a3.33,3.33,0,0,1,1.42,2.68,3.4,3.4,0,0,1-1.67,2.83,1.39,1.39,0,0,0-.56,1,1.1,1.1,0,0,0,.52.86l.72.56a3.46,3.46,0,0,1,1.67,2.78c0,1.87-1.82,3.76-5.24,3.76-2.88,0-4.28-1.37-4.28-2.84a2.87,2.87,0,0,1,1.54-2.43,8.5,8.5,0,0,1,3.8-.92,2.07,2.07,0,0,1-.6-1.35,1.79,1.79,0,0,1,.2-.78c-.22,0-.44,0-.64,0A3.14,3.14,0,0,1,84.72,35,3.6,3.6,0,0,1,86,32.34a5.46,5.46,0,0,1,3.56-1.09h4.1L92.38,32ZM89.73,40.8a3.17,3.17,0,0,0-.45,0,7.9,7.9,0,0,0-2.09.32,2.25,2.25,0,0,0-1.72,2c0,1.41,1.38,2.43,3.51,2.43,1.91,0,2.92-.92,2.92-2.15C91.9,42.41,91.24,41.88,89.73,40.8ZM90.31,37a2,2,0,0,0,.5-1.45c0-1.44-.86-3.66-2.51-3.66a1.86,1.86,0,0,0-1.39.65A2.31,2.31,0,0,0,86.47,34c0,1.33.77,3.54,2.49,3.54A2,2,0,0,0,90.31,37Z" fill="#fff"/><path d="M78.62,40.48a4.69,4.69,0,0,1-4.85-4.69A4.91,4.91,0,0,1,78.91,31a4.64,4.64,0,0,1,4.75,4.68A4.85,4.85,0,0,1,78.62,40.48Zm2.48-1.61a3.56,3.56,0,0,0,.6-2.2c0-1.75-.84-5.09-3.3-5.09a2.76,2.76,0,0,0-1.79.68,3,3,0,0,0-.91,2.42c0,2,1,5.2,3.37,5.2A2.53,2.53,0,0,0,81.1,38.87Z" fill="#fff"/><path d="M67.85,40.48A4.69,4.69,0,0,1,63,35.79,4.92,4.92,0,0,1,68.15,31a4.64,4.64,0,0,1,4.75,4.68A4.86,4.86,0,0,1,67.85,40.48Zm2.48-1.61a3.56,3.56,0,0,0,.6-2.2c0-1.75-.84-5.09-3.3-5.09a2.76,2.76,0,0,0-1.79.68,3,3,0,0,0-.91,2.42c0,2,1,5.2,3.38,5.2A2.51,2.51,0,0,0,70.33,38.87Z" fill="#fff"/><path d="M61.48,40.17l-2.85.66a21.24,21.24,0,0,1-3.3.34c-5.51,0-7.61-4.06-7.61-7.23,0-3.88,3-7.47,8.07-7.47a11.54,11.54,0,0,1,3.06.42,7.91,7.91,0,0,1,2.64,1.24L59.83,29.7l-.7.16.5-.8a5.75,5.75,0,0,0-4.28-1.87c-3.15,0-5.53,2.39-5.53,5.89a7.06,7.06,0,0,0,7.07,7.29,6,6,0,0,0,2.54-.5V36.66l-3,.15L58,36h4.23l-.52.49a.49.49,0,0,0-.2.32c0,.18,0,.76,0,1v2.44Z" fill="#fff"/><path d="M97.46,39.6c-.66-.06-.8-.18-.8-1V27.33s0-.09,0-.13c.08-.7.28-.82.9-1.18H94.71l-1.49.72h1.52V39.08c0,.39-.08.46-.54,1.06h3.54l.74-.44C98.14,39.65,97.8,39.64,97.46,39.6Z" fill="#fff"/><path d="M105.59,39.78c-.22.12-.44.26-.66.36a4.7,4.7,0,0,1-1.92.37,4.24,4.24,0,0,1-2.64-.77,5.13,5.13,0,0,1-2-4.19A4.5,4.5,0,0,1,102.89,31a3.82,3.82,0,0,1,2,.56,3.28,3.28,0,0,1,1.39,2l-4.66,1.89-1.53.11c.5,2.52,2.2,4,4.09,4a5.23,5.23,0,0,0,2.42-.69Zm-1.87-5.91c.38-.14.58-.26.58-.54a2,2,0,0,0-2-1.7,2.44,2.44,0,0,0-2.28,2.75c0,.34,0,.7.06,1.06Z" fill="#fff"/><path d="M107.5,31.11v1.31h-.16V31.11h-.43V31h1v.14Z" fill="#fff"/><path d="M109.29,32.42V31.1h0l-.4,1.32h-.13l-.41-1.32h0v1.32h-.15V31h.25l.37,1.17h0l.37-1.17h.25v1.45Z" fill="#fff"/><g id="PLAY"><g clip-path="url(#clip-path)"><polygon points="13.05 9.62 13.05 26.31 13.05 42.99 29.88 26.31 13.05 9.62" fill="url(#Sfumatura_senza_nome)"/></g><g clip-path="url(#clip-path)"><polygon points="34.4 21.82 27.61 17.9 13.05 9.49 13.05 9.62 29.88 26.31 34.4 21.82" fill="url(#Sfumatura_senza_nome_2)"/></g><g clip-path="url(#clip-path)"><polygon points="13.05 42.99 13.05 43.12 27.61 34.71 34.4 30.79 29.88 26.31 13.05 42.99" fill="url(#Sfumatura_senza_nome_3)"/></g><g clip-path="url(#clip-path)"><polygon points="34.4 21.82 29.88 26.31 34.4 30.79 42.17 26.31 34.4 21.82" fill="url(#Sfumatura_senza_nome_4)"/></g></g><path d="M48.63,10.25a14.44,14.44,0,0,1,2.22-.17,4.65,4.65,0,0,1,3.28,1A3.71,3.71,0,0,1,55.27,14a4.25,4.25,0,0,1-1.17,3.14,4.94,4.94,0,0,1-3.57,1.16,17,17,0,0,1-1.9-.09Zm1,7.14a6.25,6.25,0,0,0,1,.06A3.1,3.1,0,0,0,54.17,14c0-1.9-1.06-3.11-3.27-3.11a6,6,0,0,0-1.22.1Z" fill="#fff"/><path d="M57.77,10.79a.63.63,0,0,1-.68.64.62.62,0,0,1-.63-.64.64.64,0,0,1,.66-.66A.63.63,0,0,1,57.77,10.79Zm-1.18,7.43v-5.8h1.06v5.8Z" fill="#fff"/><path d="M59.25,17.14a2.73,2.73,0,0,0,1.4.42c.76,0,1.12-.38,1.12-.86s-.3-.78-1.08-1.07c-1-.37-1.53-1-1.53-1.64a1.78,1.78,0,0,1,2-1.7,3,3,0,0,1,1.43.35l-.27.77a2.25,2.25,0,0,0-1.18-.33c-.63,0-1,.36-1,.79s.34.69,1.1,1c1,.39,1.52.89,1.52,1.75,0,1-.79,1.74-2.17,1.74A3.3,3.3,0,0,1,59,18Z" fill="#fff"/><path d="M64.15,14.31c0-.74,0-1.34-.05-1.89h1l0,1h0a2.27,2.27,0,0,1,2.06-1.12c1.41,0,2.46,1.18,2.46,3,0,2.08-1.27,3.11-2.64,3.11a2,2,0,0,1-1.78-.91h0V20.6h-1Zm1,1.55a2.68,2.68,0,0,0,0,.43,1.63,1.63,0,0,0,1.58,1.24c1.12,0,1.77-.92,1.77-2.25,0-1.16-.61-2.16-1.73-2.16a1.68,1.68,0,0,0-1.59,1.31,1.56,1.56,0,0,0-.08.43Z" fill="#fff"/><path d="M76.23,15.27a2.83,2.83,0,0,1-2.89,3.08,2.76,2.76,0,0,1-2.78-3,2.83,2.83,0,0,1,2.88-3.08A2.75,2.75,0,0,1,76.23,15.27Zm-4.6.06c0,1.27.73,2.23,1.76,2.23s1.76-.95,1.76-2.25c0-1-.49-2.23-1.74-2.23S71.63,14.23,71.63,15.33Z" fill="#fff"/><path d="M77.57,14c0-.6,0-1.09,0-1.57h.93l.06,1h0a2.11,2.11,0,0,1,1.92-1.09c.8,0,2.05.47,2.05,2.47v3.46H81.45V14.88c0-.94-.35-1.72-1.34-1.72a1.5,1.5,0,0,0-1.42,1.08,1.75,1.75,0,0,0-.07.49v3.49H77.57Z" fill="#fff"/><path d="M85.4,10.79a.62.62,0,0,1-.67.64.63.63,0,0,1-.64-.64.64.64,0,0,1,.66-.66A.62.62,0,0,1,85.4,10.79Zm-1.17,7.43v-5.8h1v5.8Z" fill="#fff"/><path d="M87,18.22c0-.39,0-1,0-1.5v-7h1v3.64h0a2.15,2.15,0,0,1,2-1.06c1.44,0,2.46,1.19,2.45,3,0,2.07-1.31,3.1-2.61,3.1A2.06,2.06,0,0,1,88,17.26h0l0,1Zm1.1-2.32a2.33,2.33,0,0,0,0,.38,1.64,1.64,0,0,0,1.59,1.23c1.1,0,1.76-.9,1.76-2.23,0-1.16-.6-2.16-1.73-2.16a1.68,1.68,0,0,0-1.6,1.3,1.71,1.71,0,0,0-.06.43Z" fill="#fff"/><path d="M95,10.79a.63.63,0,0,1-.68.64.62.62,0,0,1-.63-.64.64.64,0,0,1,.66-.66A.63.63,0,0,1,95,10.79Zm-1.18,7.43v-5.8h1.06v5.8Z" fill="#fff"/><path d="M96.67,9.71h1v8.51h-1Z" fill="#fff"/><path d="M100.09,15.51a1.86,1.86,0,0,0,2,2,4,4,0,0,0,1.61-.3l.18.75a4.71,4.71,0,0,1-1.93.36,2.69,2.69,0,0,1-2.86-2.92c0-1.76,1-3.13,2.72-3.13A2.45,2.45,0,0,1,104.2,15a4.68,4.68,0,0,1,0,.49Zm3.09-.75A1.5,1.5,0,0,0,101.72,13a1.75,1.75,0,0,0-1.62,1.72Z" fill="#fff"/><path d="M107.91,17.14a2.72,2.72,0,0,0,1.39.42c.77,0,1.13-.38,1.13-.86s-.3-.78-1.08-1.07c-1-.37-1.53-1-1.53-1.64a1.78,1.78,0,0,1,2-1.7,3,3,0,0,1,1.43.35l-.27.77a2.25,2.25,0,0,0-1.18-.33c-.63,0-1,.36-1,.79s.35.69,1.11,1c1,.39,1.52.89,1.52,1.75,0,1-.79,1.74-2.17,1.74a3.3,3.3,0,0,1-1.63-.39Z" fill="#fff"/><path d="M117.67,16.64c0,.6,0,1.13,0,1.58h-.93l-.06-.95h0a2.16,2.16,0,0,1-1.91,1.08c-.92,0-2-.5-2-2.54V12.42h1.06v3.21c0,1.1.33,1.85,1.29,1.85a1.52,1.52,0,0,0,1.39-1,1.57,1.57,0,0,0,.1-.54V12.42h1.06Z" fill="#fff"/></svg>